<svg width="1434" height="233" viewBox="0 0 1434 233" fill="none" xmlns="http://www.w3.org/2000/svg">
<path d="M0.121252 229V4.99998H156.281V51.72H53.5613V182.28H159.801V229H0.121252ZM26.0413 137.48V92.68H142.201V137.48H26.0413ZM263.971 229V4.99998H318.691V180.68H418.531V229H263.971ZM512.724 229V182.92H550.484V51.08H512.724V4.99998H642.964V51.08H605.204V182.92H642.964V229H512.724ZM849.056 232.2C832.203 232.2 816.63 229.427 802.336 223.88C788.256 218.12 775.99 210.12 765.536 199.88C755.296 189.427 747.296 177.16 741.536 163.08C735.99 148.787 733.216 133.213 733.216 116.36C733.216 99.72 736.096 84.36 741.856 70.28C747.83 56.2 756.15 43.9333 766.816 33.48C777.483 23.0267 789.963 14.92 804.256 9.15999C818.763 3.39999 834.443 0.519985 851.296 0.519985C861.963 0.519985 872.416 1.90665 882.656 4.67999C892.896 7.45332 902.39 11.6133 911.136 17.16C920.096 22.4933 927.776 29 934.176 36.68L900.576 74.76C893.963 67.5067 886.496 61.8533 878.176 57.8C870.07 53.7467 861.003 51.72 850.976 51.72C842.443 51.72 834.336 53.2133 826.656 56.2C819.19 59.1867 812.683 63.56 807.136 69.32C801.59 75.08 797.216 81.9067 794.016 89.8C790.816 97.6933 789.216 106.653 789.216 116.68C789.216 126.493 790.71 135.453 793.696 143.56C796.896 151.453 801.376 158.28 807.136 164.04C813.11 169.587 820.15 173.853 828.256 176.84C836.576 179.827 845.75 181.32 855.776 181.32C862.39 181.32 868.683 180.467 874.656 178.76C880.843 176.84 886.603 174.173 891.936 170.76C897.27 167.347 901.856 163.507 905.696 159.24L932.256 201.48C927.136 207.24 920.096 212.467 911.136 217.16C902.39 221.853 892.576 225.587 881.696 228.36C871.03 230.92 860.15 232.2 849.056 232.2ZM1022.61 229V182.92H1060.37V51.08H1022.61V4.99998H1152.85V51.08H1115.09V182.92H1152.85V229H1022.61ZM1310.51 229V53.32H1244.59V4.99998H1433.39V53.32H1365.23V229H1310.51Z" fill="#E0D6F5"/>
</svg>
