<svg width="1440" height="2981" viewBox="0 0 1440 2981" fill="none" xmlns="http://www.w3.org/2000/svg">
<rect width="1440" height="2981" fill="#1E1E1E"/>
<g clip-path="url(#clip0_0_1)">
<rect width="1440" height="2981" fill="#030303"/>
<path d="M408.059 759.327C417.677 745.836 436.407 742.701 449.894 752.326L553.262 826.096L529.42 859.539C519.802 873.03 501.072 876.165 487.585 866.54L384.217 792.77L408.059 759.327Z" fill="#855CD6" fill-opacity="0.54"/>
<path d="M1041.26 1772.61C1031.24 1785.8 1033.81 1804.63 1046.99 1814.66L1148.08 1891.53L1172.92 1858.83C1182.95 1845.64 1180.38 1826.81 1167.19 1816.78L1066.11 1739.9L1041.26 1772.61Z" fill="#855CD6" fill-opacity="0.54"/>
<path d="M1041.11 688.913C1052.16 685.576 1063.83 691.785 1067.24 702.815L1086.66 765.581C1090.1 776.716 1083.83 788.526 1072.68 791.895L1009.81 810.884C998.759 814.221 987.089 808.013 983.676 796.983L964.255 734.216C960.81 723.082 967.086 711.272 978.239 707.903L1041.11 688.913Z" fill="#855CD6" fill-opacity="0.48"/>
<path d="M496.872 1908.88C496.965 1920.42 506.35 1929.73 517.887 1929.71L583.559 1929.65C595.211 1929.63 604.625 1920.13 604.531 1908.47L604.002 1842.77C603.909 1831.22 594.524 1821.92 582.987 1821.93L517.315 1822C505.663 1822.01 496.249 1831.52 496.343 1843.17L496.872 1908.88Z" fill="#855CD6" fill-opacity="0.48"/>
<ellipse cx="782.5" cy="405" rx="99.5" ry="99" fill="#1F0F3D"/>
<ellipse cx="98.9782" cy="98.9359" rx="98.9782" ry="98.9359" transform="matrix(0.296571 0.955011 0.954924 -0.296852 590.699 1422.13)" fill="#1F0F3D"/>
<path d="M317.517 90.8242C337.416 71.0135 369.584 71.0135 389.483 90.8242L430.698 131.858C450.721 151.793 450.721 184.207 430.698 204.142L389.483 245.176C369.584 264.986 337.416 264.986 317.517 245.176L276.302 204.142C256.279 184.207 256.279 151.793 276.302 131.858L317.517 90.8242Z" fill="#B399E6" fill-opacity="0.63"/>
<path d="M999.172 1153.07C986.069 1178 995.642 1208.83 1020.56 1221.93L1072.3 1249.16C1097.23 1262.28 1128.08 1252.69 1141.19 1227.75L1168.4 1175.98C1181.51 1151.05 1171.93 1120.22 1147.02 1107.11L1095.27 1079.88C1070.34 1066.77 1039.5 1076.35 1026.38 1101.3L999.172 1153.07Z" fill="#B399E6" fill-opacity="0.63"/>
<path d="M1058.26 174.09C1067.24 139.341 1086.71 108.204 1114 84.9172C1141.3 61.63 1175.11 47.3229 1210.82 43.9427C1246.54 40.5625 1282.42 48.2734 1313.6 66.026C1344.78 83.7787 1369.73 110.711 1385.07 143.158C1400.41 175.606 1405.38 211.992 1399.31 247.367C1393.24 282.742 1376.42 315.387 1351.15 340.86C1325.88 366.334 1293.38 383.398 1258.07 389.732C1222.75 396.065 1186.35 391.36 1153.81 376.257L1227.26 217.819L1058.26 174.09Z" fill="#7547D1" fill-opacity="0.52"/>
<path d="M148.423 1250.25C117.921 1269.15 93.9777 1296.98 79.8503 1329.97C65.723 1362.97 62.0979 1399.51 69.4683 1434.64C76.8388 1469.76 94.8469 1501.77 121.042 1526.29C147.238 1550.81 180.348 1566.66 215.868 1571.69C251.389 1576.71 287.594 1570.67 319.557 1554.37C351.521 1538.08 377.69 1512.32 394.505 1480.62C411.32 1448.91 417.963 1412.79 413.532 1377.18C409.1 1341.56 393.808 1308.17 369.737 1281.56L240.307 1398.75L148.423 1250.25Z" fill="#7547D1" fill-opacity="0.52"/>
<circle cx="155" cy="499" r="56" fill="#6633CC" fill-opacity="0.7"/>
<path d="M403.059 2784.33C412.677 2770.84 431.407 2767.7 444.894 2777.33L548.262 2851.1L524.42 2884.54C514.802 2898.03 496.072 2901.16 482.585 2891.54L379.217 2817.77L403.059 2784.33Z" fill="#855CD6" fill-opacity="0.54"/>
<path d="M1036.11 2713.91C1047.16 2710.58 1058.83 2716.79 1062.24 2727.81L1081.66 2790.58C1085.1 2801.72 1078.83 2813.53 1067.68 2816.89L1004.81 2835.88C993.759 2839.22 982.089 2833.01 978.676 2821.98L959.255 2759.22C955.81 2748.08 962.086 2736.27 973.239 2732.9L1036.11 2713.91Z" fill="#855CD6" fill-opacity="0.48"/>
<ellipse cx="777.5" cy="2430" rx="99.5" ry="99" fill="#1F0F3D"/>
<path d="M312.517 2115.82C332.416 2096.01 364.584 2096.01 384.483 2115.82L425.698 2156.86C445.721 2176.79 445.721 2209.21 425.698 2229.14L384.483 2270.18C364.584 2289.99 332.416 2289.99 312.517 2270.18L271.302 2229.14C251.279 2209.21 251.279 2176.79 271.302 2156.86L312.517 2115.82Z" fill="#B399E6" fill-opacity="0.63"/>
<path d="M1053.26 2199.09C1062.24 2164.34 1081.71 2133.2 1109 2109.92C1136.3 2086.63 1170.11 2072.32 1205.82 2068.94C1241.54 2065.56 1277.42 2073.27 1308.6 2091.03C1339.78 2108.78 1364.73 2135.71 1380.07 2168.16C1395.41 2200.61 1400.38 2236.99 1394.31 2272.37C1388.24 2307.74 1371.42 2340.39 1346.15 2365.86C1320.88 2391.33 1288.38 2408.4 1253.07 2414.73C1217.75 2421.07 1181.35 2416.36 1148.81 2401.26L1222.26 2242.82L1053.26 2199.09Z" fill="#7547D1" fill-opacity="0.52"/>
<circle cx="150" cy="2524" r="56" fill="#6633CC" fill-opacity="0.7"/>
<ellipse cx="55.7947" cy="55.7708" rx="55.7947" ry="55.7708" transform="matrix(0.296571 0.955011 0.954924 -0.296852 1277.87 1408.71)" fill="#6633CC" fill-opacity="0.7"/>
</g>
<defs>
<clipPath id="clip0_0_1">
<rect width="1440" height="2981" fill="white"/>
</clipPath>
</defs>
</svg>
